<svg xmlns="http://www.w3.org/2000/svg" width="1000" height="300" viewBox="0 0 1000 300" role="img">
<defs>
<style>
text { font-family: -apple-system, BlinkMacSystemFont, 'Segoe UI', sans-serif; fill: #1f2933; }
.title { font-size: 26px; font-weight: 700; }
.subtitle { font-size: 14px; fill: #5b6773; }
.label { font-size: 14px; font-weight: 600; }
.small { font-size: 12px; fill: #5b6773; }
.tiny { font-size: 11px; fill: #5b6773; }
.mono { font-size: 11px; font-family: ui-monospace, SFMono-Regular, Menlo, Consolas, monospace; fill: #1f2933; }
.value { font-size: 13px; font-weight: 650; }
</style>
<pattern id="diag" width="8" height="8" patternUnits="userSpaceOnUse" patternTransform="rotate(45)">
<rect width="8" height="8" fill="#edf1f5"/>
<line x1="0" y1="0" x2="0" y2="8" stroke="#8b96a3" stroke-width="3"/>
</pattern>
</defs>
<rect x="0" y="0" width="1000" height="300" fill="#ffffff"/>
<text x="40.0" y="48.0" text-anchor="start" class="title">nanoGPT-2 vs DDiT parameters</text>
<text x="40.0" y="75.0" text-anchor="start" class="subtitle">d12 config: 12 layers, d=768, vocab=50,257</text>
<text x="130.0" y="137.0" text-anchor="end" class="label">nanoGPT-2</text>
<rect x="220.0" y="112.0" width="143.4" height="42.0" fill="#4e79a7"/>
<text x="291.7" y="138.0" text-anchor="middle" class="value" style="fill: #ffffff">38.6M</text>
<rect x="363.4" y="112.0" width="2.9" height="42.0" fill="#bab0ac"/>
<rect x="366.3" y="112.0" width="315.5" height="42.0" fill="#59a14f"/>
<text x="524.0" y="138.0" text-anchor="middle" class="value" style="fill: #ffffff">84.9M</text>
<rect x="220.0" y="112.0" width="461.8" height="42.0" fill="none" stroke="#1f2933"/>
<text x="884.0" y="137.0" text-anchor="start" class="value">124.3M</text>
<text x="130.0" y="198.0" text-anchor="end" class="label">DDiT</text>
<rect x="220.0" y="173.0" width="143.4" height="42.0" fill="#4e79a7"/>
<text x="291.7" y="199.0" text-anchor="middle" class="value" style="fill: #ffffff">38.6M</text>
<rect x="363.4" y="173.0" width="342.2" height="42.0" fill="#59a14f"/>
<text x="534.5" y="199.0" text-anchor="middle" class="value" style="fill: #ffffff">92.1M</text>
<rect x="705.8" y="173.0" width="144.3" height="42.0" fill="#e15759"/>
<text x="777.9" y="199.0" text-anchor="middle" class="value" style="fill: #ffffff">38.8M</text>
<rect x="220.0" y="173.0" width="630.0" height="42.0" fill="none" stroke="#1f2933"/>
<text x="884.0" y="198.0" text-anchor="start" class="value">169.6M</text>
<rect x="220.0" y="242.0" width="14.0" height="14.0" fill="#4e79a7"/>
<text x="240.0" y="253.0" text-anchor="start" class="small">embeddings</text>
<rect x="338.0" y="242.0" width="14.0" height="14.0" fill="#59a14f"/>
<text x="358.0" y="253.0" text-anchor="start" class="small">blocks</text>
<rect x="428.0" y="242.0" width="14.0" height="14.0" fill="#b07aa1"/>
<text x="448.0" y="253.0" text-anchor="start" class="small">time/conditioning</text>
<rect x="595.0" y="242.0" width="14.0" height="14.0" fill="#e15759"/>
<text x="615.0" y="253.0" text-anchor="start" class="small">DDiT output head</text>
</svg>
